<?xml version="1.0" encoding="UTF-8" standalone="no"?>
<!-- Created with Inkscape (http://www.inkscape.org/) -->

<svg
   width="1023.9999"
   height="1023.9999"
   viewBox="0 0 270.93333 270.93333"
   version="1.1"
   id="svg5"
   xml:space="preserve"
   inkscape:version="1.2.2 (732a01da63, 2022-12-09)"
   sodipodi:docname="rephex_logo.svg"
   inkscape:export-filename="rephex_logo.svg"
   inkscape:export-xdpi="96"
   inkscape:export-ydpi="96"
   xmlns:inkscape="http://www.inkscape.org/namespaces/inkscape"
   xmlns:sodipodi="http://sodipodi.sourceforge.net/DTD/sodipodi-0.dtd"
   xmlns="http://www.w3.org/2000/svg"
   xmlns:svg="http://www.w3.org/2000/svg"><sodipodi:namedview
     id="namedview7"
     pagecolor="#505050"
     bordercolor="#eeeeee"
     borderopacity="1"
     inkscape:showpageshadow="0"
     inkscape:pageopacity="0"
     inkscape:pagecheckerboard="0"
     inkscape:deskcolor="#505050"
     inkscape:document-units="mm"
     showgrid="true"
     inkscape:zoom="0.26110523"
     inkscape:cx="967.04306"
     inkscape:cy="670.22786"
     inkscape:window-width="1920"
     inkscape:window-height="1009"
     inkscape:window-x="1912"
     inkscape:window-y="-8"
     inkscape:window-maximized="1"
     inkscape:current-layer="layer2"
     showguides="true"><inkscape:grid
       type="xygrid"
       id="grid10736"
       dotted="false"
       empspacing="4" /></sodipodi:namedview><defs
     id="defs2" /><g
     inkscape:label="Layer 1"
     inkscape:groupmode="layer"
     id="layer1"
     style="display:inline"><g
       id="g8527"
       transform="translate(49.182061,23.838497)"><path
         style="fill:#9d0210;fill-opacity:1;stroke-width:0.352778"
         d="M 6.6498619,14.174818 C 15.799742,4.8996632 28.962035,-2.2685655 41.993875,-5.0736496 46.85409,-6.119805 56.417077,-6.3786557 60.124101,-5.5643988 c 6.150941,1.3510753 14.185052,4.99233795 19.118282,8.6648955 3.171941,2.3613637 7.257048,6.577012 8.454372,8.7245393 l 0.798784,1.432701 -1.857117,-1.002718 C 83.8906,10.771384 79.945547,9.563558 75.923228,8.9744333 71.931325,8.3897641 69.492223,8.4772706 66.573605,9.3098649 64.607021,9.8708733 64.557586,9.8660085 59.234152,8.5876936 52.440033,6.9562199 49.642037,6.5988208 43.506307,6.5787089 36.033109,6.5542262 28.81783,7.774816 20.222975,10.517529 15.541713,12.01137 9.1980109,14.49658 6.211786,16.006546 c -0.9151796,0.46276 -1.7843323,0.841379 -1.9314476,0.841379 -0.1471154,0 0.9191695,-1.202898 2.3695235,-2.673107 z"
         id="path1050" /><path
         style="fill:#9d0210;fill-opacity:1;stroke-width:0.352778"
         d="m 125.86234,20.351029 c -0.42414,-0.595651 -1.56621,-1.711448 -2.53792,-2.479544 -1.18085,-0.933404 -2.36501,-2.400092 -3.5707,-4.422634 C 115.12231,5.679736 109.86233,1.5967074 98.534585,-3.0223952 91.599242,-5.8504133 83.152469,-7.3922038 77.287963,-6.9005445 c -2.279971,0.1911456 -2.822483,0.095529 -5.973851,-1.0528793 -4.014635,-1.4629941 -8.073103,-2.5243792 -11.580028,-3.0284492 -3.227035,-0.463839 -12.777977,-0.194105 -15.69861,0.443354 -1.261181,0.275269 -2.345027,0.452127 -2.408544,0.393022 -0.217015,-0.20193 4.761649,-2.95657 7.556263,-4.180793 4.765618,-2.087658 10.075646,-3.624979 16.195335,-4.688763 4.962623,-0.86265 16.394704,-0.857415 20.813887,0.0095 6.430768,1.26158 14.018825,3.923972 18.520835,6.498343 9.32682,5.3333259 17.00828,14.5789394 20.43208,24.592603 1.11583,3.263494 2.26669,9.34861 1.76808,9.34861 -0.15394,0 -0.62692,-0.487351 -1.05107,-1.083006 z"
         id="path1048" /><path
         style="fill:#9d0210;fill-opacity:1;stroke-width:0.352778"
         d="m 46.90397,53.801394 c 1.369779,-1.963423 5.671075,-6.066768 8.020307,-7.651206 5.182693,-3.495463 10.163354,-5.347578 14.566398,-5.416676 l 2.348258,-0.03685 2.488618,2.513421 c 1.78157,1.799329 3.246409,2.887945 5.155846,3.831636 l 2.667226,1.318218 -0.743814,0.791753 c -1.071549,1.140611 -4.460804,2.863754 -6.884793,3.500321 -2.747592,0.72155 -6.829361,0.715366 -11.804646,-0.01789 -5.10704,-0.752666 -9.061167,-0.530645 -12.671555,0.711503 -1.44799,0.498179 -2.789427,1.062496 -2.980972,1.25404 -0.795693,0.795694 -0.902645,0.264979 -0.160873,-0.798269 z"
         id="path1046" /><path
         style="fill:#9d0210;fill-opacity:1;stroke-width:0.352778"
         d="m -34.986743,76.458539 c 0,-2.690749 6.167123,-15.873038 10.888598,-23.274506 5.42974,-8.511747 13.356106,-17.420024 20.7553159,-23.326469 11.3712441,-9.077134 25.8959761,-15.5765 39.6171921,-17.72746 7.118942,-1.115977 11.406374,-1.403826 14.657856,-0.984101 2.877862,0.371496 3.665996,0.582912 3.304413,0.886414 -0.08085,0.06786 -2.027195,0.966805 -4.325225,1.997664 -2.298026,1.030859 -4.267496,2.106901 -4.376593,2.391205 -0.267888,0.698112 0.599747,1.296963 5.367341,3.704561 2.225298,1.123763 4.12677,2.173898 4.225491,2.333632 0.09873,0.159738 -1.285067,0.37568 -3.07509,0.479873 -5.765831,0.335615 -13.549964,2.708797 -22.834238,6.961572 -10.081231,4.617832 -20.3019578,11.462691 -28.0740786,18.801308 -2.8692508,2.709217 -3.5506305,3.162335 -6.5263885,4.340041 -7.8940199,3.1242 -13.8248129,6.816873 -19.4530299,12.111986 -2.767816,2.604004 -7.809861,8.380567 -9.558199,10.950631 -0.361678,0.531664 -0.593365,0.669752 -0.593365,0.353649 z"
         id="path1044" /><path
         id="path1040"
         style="fill:#9d0210;fill-opacity:1;stroke-width:0.352778"
         d="m 110.71047,90.332519 c 0,-0.185135 0.40466,-0.716771 0.89925,-1.181411 1.50515,-1.414018 3.39507,-4.541918 4.27759,-7.079607 0.70685,-2.032536 0.8218,-2.967669 0.74166,-6.033219 -0.0861,-3.294063 -0.01,-3.806388 0.8295,-5.568139 0.50839,-1.067152 1.90608,-3.051527 3.10597,-4.409722 3.13302,-3.546354 3.71412,-4.766595 3.69597,-7.76111 -0.0234,-3.851215 -1.58065,-6.320215 -6.09937,-9.670076 -3.77292,-2.796981 -6.48323,-3.996122 -9.47153,-4.190548 -3.0643,-0.199372 -4.77429,0.342791 -4.61158,1.462126 0.0987,0.678618 0.3429,0.731139 3.45754,0.743515 2.88286,0.01147 3.53634,0.128308 4.6743,0.835839 0.72761,0.452389 1.32292,1.034359 1.32292,1.293273 0,0.258914 -0.67469,0.99744 -1.4993,1.641172 -0.82462,0.643731 -2.64104,2.157853 -4.03648,3.364716 -5.61105,4.852772 -9.49797,5.536336 -17.041995,2.997045 -3.934855,-1.324458 -6.064285,-1.886194 -8.995833,-2.373059 l -1.411111,-0.234357 1.763889,-1.568499 c 2.446048,-2.17509 5.408506,-3.507401 8.935868,-4.018739 3.098584,-0.449184 3.81237,-0.968695 2.767093,-2.013969 -0.434841,-0.434841 -1.437636,-0.58439 -4.369766,-0.651672 -6.499775,-0.149148 -9.7397,-1.598641 -14.457492,-6.468057 l -2.541824,-2.623513 -3.154553,0.420003 c -4.137963,0.55093 -9.261365,2.234826 -12.470062,4.098505 -5.053083,2.934931 -12.837431,7.710974 -14.57315,8.941269 -0.970139,0.687645 -3.172273,2.442316 -4.893627,3.899267 -2.475491,2.095249 -3.078999,2.470456 -2.886999,1.794883 0.480275,-1.689907 3.796841,-8.277443 5.306112,-10.539277 5.705711,-8.550726 16.61882,-14.230999 28.319347,-14.740212 l 4.325391,-0.188242 2.282902,2.457728 c 2.625817,2.826911 5.25539,4.440227 6.967438,4.274718 2.317824,-0.224067 1.389186,-1.843084 -3.780839,-6.591624 -3.341281,-3.068885 -6.744652,-5.125212 -11.827227,-7.146057 -2.037291,-0.810031 -3.854979,-1.607478 -4.039305,-1.772109 -0.540163,-0.482437 4.036166,-0.345369 7.256289,0.21734 7.256561,1.268063 14.16378,4.893768 21.830237,11.459022 4.967887,4.254306 7.758528,5.374798 12.347217,4.957646 1.62984,-0.148167 1.95712,-0.294217 2.0455,-0.912816 0.15961,-1.117064 -0.66064,-1.554272 -3.51689,-1.874591 C 98.917896,35.213739 97.442046,34.461296 94.125043,31.471455 83.2701,21.68715 73.578886,18.002027 60.870892,18.826433 c -4.607083,0.298873 -4.951842,0.274958 -6.614582,-0.458855 -0.964795,-0.425792 -1.75417,-0.91725 -1.75417,-1.092129 0,-0.359548 6.572824,-2.956228 9.524999,-3.762978 2.409712,-0.658513 7.477619,-1.243933 10.801706,-1.247764 3.289388,-0.0038 7.697808,0.78771 11.423293,2.050972 5.35699,1.816484 5.595365,2.003954 7.899748,6.212783 1.126339,2.057199 2.339234,3.896282 2.695321,4.086856 0.933387,0.499534 2.096573,0.425979 2.31624,-0.146466 C 97.445345,23.734242 93.324883,14.231418 91.292421,10.928776 89.340604,7.7571807 84.701548,2.6402805 81.959082,0.63405454 80.988943,-0.07563905 79.163319,-1.2786218 77.902138,-2.0392388 l -2.293055,-1.3829382 1.411111,-0.2515623 c 3.684774,-0.6568933 8.832824,-0.082797 14.314352,1.5962982 l 2.971758,0.9103077 1.054456,2.03041234 c 0.579949,1.11672856 2.10391,3.46355436 3.386578,5.21516996 1.282672,1.7516157 2.757342,3.9207438 3.277062,4.8202881 1.55592,2.693053 3.03787,7.233436 3.36308,10.303721 0.16762,1.582575 0.47544,3.308713 0.68404,3.835858 0.57975,1.465101 5.93909,7.260879 7.40623,8.009354 0.7147,0.364617 1.85288,0.71852 2.52928,0.786458 1.0247,0.102916 1.2473,0.0014 1.33456,-0.609198 0.0802,-0.561333 -0.23673,-0.886689 -1.35514,-1.391024 -1.74373,-0.78631 -4.2627,-3.549378 -5.46098,-5.990149 -0.47628,-0.970138 -1.1714,-3.196596 -1.54471,-4.947686 C 107.601,14.424024 105.68843,10.189178 101.83665,5.0774773 99.319618,1.7371271 99.115733,1.3216537 100.0012,1.3372217 c 2.55592,0.044933 8.42802,3.4397595 12.07022,6.978131 2.40651,2.3379183 5.87192,7.1814653 6.26843,8.7612923 0.11837,0.471628 1.1562,1.498723 2.4402,2.414972 3.59313,2.564006 5.67813,5.55566 6.46751,9.279921 0.21793,1.028195 0.39624,3.709345 0.39624,5.958109 v 4.088659 l 2.94809,3.001574 c 1.75535,1.787193 3.11126,2.900733 3.35139,2.752323 0.85119,-0.526062 0.35821,-1.913252 -1.38983,-3.910834 -0.98622,-1.127012 -1.9469,-2.453566 -2.13485,-2.9479 -0.20069,-0.527861 -0.29782,-4.982495 -0.23534,-10.793972 0.11845,-11.018495 -0.0722,-12.775526 -2.0423,-18.8192117 -2.36452,-7.25375977 -5.72719,-12.4169197 -11.94594,-18.3422243 -2.09545,-1.996577 -3.71889,-3.721163 -3.60764,-3.832415 0.231,-0.230999 4.18002,0.8979 7.82448,2.236773 11.60605,4.263746 20.19735,14.077434 23.63681,26.99993 2.51137,9.43556 2.5541,19.592649 0.14659,34.846685 -0.62617,3.967419 -0.82769,4.596771 -2.00913,6.274603 -2.87326,4.080454 -2.87732,5.086632 -0.023,5.698776 1.00136,0.21475 2.47815,0.681302 3.28178,1.036782 1.46062,0.646105 4.07111,2.701099 4.07111,3.204806 0,0.146784 -0.8595,0.355586 -1.91,0.464008 -1.05051,0.10842 -2.28082,0.400287 -2.73403,0.648589 -0.80049,0.438563 -0.78278,0.458739 0.62,0.706336 3.02989,0.53479 5.54445,1.99355 6.62417,3.842846 l 0.65987,1.130188 -1.36542,-0.205137 c -0.75097,-0.112826 -2.15916,-0.307368 -3.1293,-0.432319 l -1.76389,-0.227185 1.54731,1.344651 c 1.57257,1.366608 3.20549,4.266173 3.21174,5.703083 0.003,0.750012 -0.0842,0.724104 -1.67224,-0.495145 -2.30074,-1.766467 -5.11738,-3.012112 -6.50489,-2.876754 -0.99012,0.09659 -1.30325,0.403666 -2.40683,2.360263 -3.18387,5.644853 -6.2415,7.54163 -13.22509,8.204079 -3.1441,0.298246 -3.94982,0.531326 -7.40833,2.143076 -3.35662,1.564266 -4.2497,1.830451 -6.61458,1.971491 -1.61389,0.09625 -2.73403,0.02515 -2.73403,-0.173552 z m 18.84225,-14.597778 c 0.50232,-0.596967 0.9133,-1.218985 0.9133,-1.382257 0,-0.163273 0.0987,-0.553999 0.21928,-0.868285 0.1782,-0.464379 -0.0366,-0.426053 -1.14653,0.204586 -1.61398,0.917014 -2.24775,1.619998 -2.24775,2.493229 0,1.009106 1.24309,0.763277 2.2617,-0.447273 z" /><path
         style="fill:#9d0210;fill-opacity:1;stroke-width:0.352778"
         d="M -2.3568752,92.269004 C -3.6560534,88.156381 -4.0717526,84.439684 -3.8283147,79.113198 -3.3472423,68.587273 0.37792849,60.270206 8.5748219,51.421115 20.720995,38.308517 38.752468,28.324872 52.854918,26.904154 c 2.420066,-0.243801 7.812238,0.286534 9.441454,0.928593 0.88634,0.349299 0.676286,0.447061 -2.562288,1.192515 -6.607983,1.521019 -12.887307,4.704186 -20.398855,10.340749 -5.25913,3.94638 -9.981889,8.098737 -14.204392,12.488816 -13.096913,13.616688 -21.7987229,27.568516 -25.25964906,40.499419 -0.41369894,1.545688 -0.87844134,2.81034 -1.03276394,2.81034 -0.1543226,0 -0.6922064,-1.303013 -1.1952992,-2.895582 z"
         id="path1038" /><path
         style="fill:#9d0210;fill-opacity:1;stroke-width:0.352778"
         d="m 151.22197,146.14183 c -0.10081,-0.10081 0.12759,-1.09474 0.50755,-2.20874 0.59902,-1.75626 0.65167,-2.47087 0.39618,-5.37684 -0.16207,-1.84326 -0.2996,-4.79545 -0.30564,-6.56041 -0.0107,-3.12345 0.033,-3.2975 1.6402,-6.52639 1.66791,-3.35095 3.65389,-6.203 7.52104,-10.80091 l 2.11667,-2.51664 0.20367,6.58759 c 0.11202,3.62318 0.0854,8.81009 -0.0593,11.52648 -0.33427,6.27906 -1.03913,8.4048 -3.62892,10.94426 -2.33441,2.28904 -7.81384,5.50925 -8.39149,4.9316 z"
         id="path1036" /><path
         style="fill:#da590c;fill-opacity:1;stroke-width:0.352778"
         d="m -19.110425,157.75923 c -0.0044,-2.45671 1.841994,-9.39557 2.836665,-10.66009 l 0.642038,-0.81622 -0.02621,1.16375 c -0.01439,0.64006 0.09948,2.24397 0.253076,3.56423 l 0.27927,2.40049 -1.253063,1.30368 c -0.689187,0.71702 -1.585486,1.8593 -1.99177,2.5384 -0.584221,0.97651 -0.738981,1.08228 -0.740021,0.50576 z"
         id="path1034" /><path
         style="fill:#9d0210;fill-opacity:1;stroke-width:0.352778"
         d="m 161.59262,168.11949 c 0.0662,-0.19845 1.70192,-1.23242 3.63504,-2.29771 9.19532,-5.06727 13.05026,-8.43669 15.81126,-13.81989 2.72186,-5.30691 7.06244,-17.82281 8.82273,-25.44008 4.09969,-17.7404 3.98123,-32.373967 -0.36838,-45.508334 -1.43929,-4.346176 -5.11273,-12.103276 -8.12319,-17.153515 -1.85413,-3.110431 -2.16166,-3.884753 -2.38184,-5.997222 -1.05545,-10.126457 -5.25837,-19.703932 -12.08823,-27.546249 -1.218,-1.398552 -2.21454,-2.6369 -2.21454,-2.751885 0,-0.406266 5.61027,2.716668 8.75464,4.873237 12.51845,8.585788 24.1105,23.452891 30.17316,38.697857 7.9083,19.88592 7.45053,42.281731 -1.27629,62.441661 -3.49728,8.0791 -6.538,13.54578 -11.15721,20.05873 -2.91109,4.10455 -7.03969,9.1275 -9.02969,10.98571 l -1.32228,1.23473 1.8948,-3.6633 c 1.81562,-3.51021 1.90003,-3.79583 2.01973,-6.83449 0.14596,-3.70533 -0.10821,-3.76786 -1.76705,-0.43472 -0.61954,1.24484 -1.69774,3.01925 -2.39601,3.94313 -3.46787,4.58834 -11.04694,8.63756 -17.58856,9.39693 -0.95142,0.11044 -1.47345,0.0415 -1.39809,-0.18459 z"
         id="path1032" /><path
         style="fill:#da590c;fill-opacity:1;stroke-width:0.352778"
         d="m 42.598808,172.86389 c -4.644214,-2.83257 -8.966069,-7.15207 -10.677362,-10.67153 -2.118367,-4.35666 -2.78916,-9.46624 -1.67888,-12.78837 l 0.442189,-1.3231 1.295499,1.3616 c 0.712522,0.74888 2.732567,2.31946 4.48898,3.49018 1.756417,1.17072 3.684831,2.6882 4.285364,3.37217 1.499493,1.70783 2.460251,4.4768 3.111666,8.96802 0.58923,4.06248 1.337952,7.06918 2.152689,8.6447 0.277244,0.53614 0.369446,0.9748 0.204886,0.9748 -0.164557,0 -1.795822,-0.91281 -3.625031,-2.02847 z"
         id="path1030" /><path
         style="fill:#da590c;fill-opacity:1;stroke-width:0.352778"
         d="m 7.6409134,182.03611 c -2.403362,-2.6022 -5.2182745,-7.9122 -6.3165422,-11.91542 -0.4644601,-1.69298 -0.76838519,-3.97713 -0.82297402,-6.18514 -0.0476074,-1.92547 -0.18544115,-3.59975 -0.30629576,-3.7206 -0.34743317,-0.34743 -2.53743162,1.15368 -3.92692092,2.69169 l -1.2688145,1.40442 0.00614,-2.02949 c 0.010866,-3.59586 1.3917047,-8.74074 3.6734959,-13.687 1.35617648,-2.9398 4.4337743,-8.22576 5.9472191,-10.21471 1.3157023,-1.72908 5.603737,-6.17361 5.956233,-6.17361 0.5891,0 2.440312,2.41183 3.466235,4.51593 l 1.10217,2.26049 1.654122,-0.243 1.654122,-0.243 -1.082615,1.17632 c -1.31432,1.42807 -3.600552,5.00922 -5.030068,7.87909 -2.285135,4.5876 -3.5080044,10.81502 -2.9397147,14.97044 0.2127356,1.55554 0.1481526,2.87906 -0.2297818,4.7091 -0.3462055,1.6764 -0.5376156,4.80376 -0.5606379,9.15999 -0.019226,3.638 -0.044947,6.61456 -0.057154,6.61459 -0.012206,3e-5 -0.4253971,-0.43652 -0.9182029,-0.97009 z"
         id="path1028" /><path
         style="fill:#9d0210;fill-opacity:1;stroke-width:0.352778"
         d="m 150.39797,182.85047 c -0.97014,-0.27664 -2.92737,-0.98593 -4.3494,-1.5762 -1.42202,-0.59026 -3.79867,-1.3238 -5.28144,-1.63007 -1.48277,-0.30628 -2.76566,-0.62659 -2.85088,-0.7118 -0.39535,-0.39535 0.7829,-2.95407 1.98004,-4.29991 1.84012,-2.06869 3.64586,-2.51828 7.58802,-1.88929 4.99277,0.79664 9.40559,0.88041 12.57262,0.23869 3.87247,-0.78466 11.92268,-4.04571 15.31072,-6.2022 1.52524,-0.97081 2.83022,-1.76511 2.89994,-1.76511 0.3443,0 -1.85761,4.74334 -3.35941,7.23681 -3.09247,5.13448 -6.62383,7.98207 -12.69216,10.23459 -2.21078,0.82062 -9.43691,1.04349 -11.81805,0.36449 z"
         id="path1026" /><path
         id="path1022"
         style="fill:#da590c;fill-opacity:1;stroke-width:0.352778"
         d="m 45.156556,186.11714 c -4.119062,-0.27436 -7.185371,-0.96053 -10.917392,-2.44305 -11.0842,-4.40311 -16.842005,-9.7041 -19.692732,-18.13034 -1.876457,-5.54647 -1.203462,-12.00168 1.953951,-18.7419 1.658627,-3.54071 3.628711,-6.24714 5.981206,-8.21676 2.762532,-2.31292 2.210537,-3.31948 -1.553058,-2.83199 -4.133211,0.53537 -4.118959,0.53948 -5.25896,-1.51874 -0.564096,-1.01845 -1.571721,-2.68516 -2.239165,-3.7038 -1.039312,-1.58618 -1.373216,-1.85206 -2.325762,-1.85187 -1.9097411,3.6e-4 -6.0703349,3.77 -10.19676571,9.23855 -0.68645612,0.90973 -1.34419613,1.58442 -1.46163937,1.49931 -0.11744677,-0.0851 -0.13442949,-0.0492 -0.0377402,0.0798 0.0966893,0.12903 -0.24515231,0.95289 -0.75964692,1.83081 -5.1821323,8.84264 -7.8814466,18.06685 -6.8047265,23.25339 0.2170606,1.04557 0.302454,1.99325 0.1897626,2.10594 -0.5335481,0.53355 -4.2203579,-8.68154 -4.9737149,-12.43168 -0.50396,-2.50867 -0.591813,-6.99425 -0.190711,-9.73741 1.376164,-9.41165 6.2433932,-16.51426 14.8018485,-21.59995 3.0509526,-1.81296 3.4905877,-2.37554 4.9916712,-6.38755 0.401394,-1.07282 1.2750376,-2.7432 1.9414277,-3.71197 0.6663936,-0.96876 1.2116222,-1.90698 1.2116222,-2.08492 0,-1.09735 -2.4552555,-0.3391 -3.5029278,1.08179 -0.3047083,0.41326 -1.2683913,2.19382 -2.1415162,3.95681 -2.0641662,4.16789 -2.7382363,4.63031 -7.122978,4.88645 -4.9198103,0.28738 -9.1276336,2.0678 -14.3966096,6.0915 -4.795823,3.66237 -11.250231,11.36838 -14.764433,17.62747 -1.879837,3.34815 -4.073966,8.73474 -4.660244,11.44092 -0.192063,0.88652 -0.448765,1.84998 -0.570456,2.14103 -0.264287,0.63209 -0.331646,0.95436 -0.442422,2.11666 -0.08174,0.85771 -0.0937,0.85287 -0.435204,-0.17639 -0.573098,-1.72726 -0.799031,-13.57493 -0.318026,-16.67687 2.146522,-13.84264 8.077814,-22.90226 19.956207,-30.48167 5.566061,-3.55162 17.4198943,-9.82891 24.1652766,-12.796924 8.5456074,-3.760121 9.5249994,-4.415935 9.5249994,-6.378074 0,-1.280837 -0.649527,-1.967911 -2.645833,-2.798773 -1.364488,-0.567898 -1.3878,-0.605155 -0.705556,-1.127552 0.564117,-0.431944 1.398803,-0.504521 4.16378,-0.362038 2.152928,0.110942 3.415262,0.04931 3.3444,-0.163276 -0.0626,-0.187812 -1.056566,-0.724637 -2.208805,-1.192939 -2.590553,-1.052883 -4.716561,-3.088781 -4.990906,-4.77937 -0.10995,-0.677534 -0.01383,-1.92297 0.213628,-2.767636 l 0.413533,-1.535755 0.634013,1.019334 c 1.05369,1.694067 2.632843,2.954143 4.812283,3.839936 1.137793,0.462432 2.140846,0.768657 2.229005,0.680502 0.08816,-0.08816 -0.316209,-0.673848 -0.898595,-1.301532 -0.582383,-0.627683 -1.32267,-1.567758 -1.64508,-2.089051 -0.777572,-1.257226 -1.39639,-4.107126 -1.125859,-5.185011 0.214912,-0.856269 0.222028,-0.853665 0.935242,0.341937 1.618834,2.713754 4.938681,5.389883 8.073143,6.507758 0.864841,0.308438 3.301491,0.874621 5.414778,1.258186 8.025013,1.456549 11.83484,4.598514 12.988321,10.711472 0.445915,2.363163 0.509073,2.461902 3.016405,4.715644 1.408525,1.266072 3.021521,3.027892 3.584434,3.915162 1.026297,1.61766 2.056253,4.46527 1.732237,4.78929 -0.0951,0.0951 -0.953974,-0.0571 -1.908605,-0.33824 -2.202099,-0.64851 -5.996304,-1.25173 -8.183163,-1.301 -1.233216,-0.0278 -2.213098,0.23659 -3.619031,0.97642 -1.890663,0.99491 -2.037065,1.01452 -7.572381,1.01452 -6.30223,0 -6.575538,0.0812 -8.212934,2.44061 -0.864419,1.24557 -0.958406,1.68168 -0.950359,4.40972 0.008,2.70067 0.128587,3.25592 1.117505,5.14412 1.313882,2.50866 3.780747,4.9569 7.81264,7.75365 3.256217,2.2587 4.659799,3.92953 5.548394,6.60484 0.801042,2.4117 0.543165,5.95438 -0.730942,10.04164 l -0.999239,3.20551 -0.906801,-1.10282 c -2.198374,-2.67359 -3.132198,-3.50024 -3.705539,-3.28023 -0.898786,0.3449 -2.925272,4.93502 -3.386815,7.67135 -0.365558,2.16728 -0.327652,2.86375 0.319405,5.86856 1.353803,6.28679 4.436435,11.0129 10.268295,15.74276 l 1.5875,1.28752 -1.940277,-0.55339 c -2.520199,-0.7188 -6.50439,-2.50328 -8.290278,-3.71313 -3.781971,-2.56209 -6.196005,-6.55234 -7.74254,-12.79793 -0.472066,-1.90642 -0.92516,-3.53308 -1.006873,-3.61479 -0.08171,-0.0817 -0.588945,0.0189 -1.127189,0.22351 -0.964152,0.36657 -0.975254,0.40495 -0.750803,2.5957 0.56925,5.55621 2.692044,10.49114 5.847912,13.59484 3.385506,3.32955 7.234357,5.27461 13.855943,7.00225 3.293812,0.85939 3.903084,1.15708 6.695411,3.2714 1.689524,1.2793 4.33893,3.03173 5.887572,3.89431 1.548641,0.86258 2.706303,1.67413 2.572582,1.80345 -0.398702,0.38556 -3.88077,0.48867 -7.7651,0.22994 z M 34.649053,95.055729 c 0.759978,-1.241414 -1.983423,-2.303532 -2.947977,-1.141317 -0.508931,0.613227 -0.218126,1.18611 0.817026,1.609524 1.038398,0.424741 1.66914,0.286156 2.130951,-0.468207 z" /><path
         style="fill:#da590c;fill-opacity:1;stroke-width:0.352778"
         d="m -25.474705,186.51494 c -2.169167,-3.19424 -4.061692,-7.46113 -5.166631,-11.6487 -0.867244,-3.28674 -0.971744,-4.29732 -0.982257,-9.49888 -0.0098,-4.83653 0.126961,-6.44044 0.808606,-9.48493 1.046416,-4.67373 2.391356,-8.30625 4.868213,-13.14847 3.746771,-7.32489 9.178977,-13.19176 15.473947,-16.7121 2.7811196,-1.55529 5.8249707,-2.76149 5.8249707,-2.30829 0,0.17815 -0.7009165,0.93156 -1.5575914,1.67426 -2.0141458,1.74618 -4.0869623,4.33627 -7.1506253,8.93509 -4.679854,7.02484 -6.923563,11.44064 -8.245499,16.22777 -0.516685,1.87108 -3.034129,13.93725 -3.790519,18.16806 -0.104066,0.58208 -0.181603,3.67771 -0.172301,6.87916 0.01464,5.03907 0.137355,6.29445 0.913702,9.34724 0.493236,1.93952 0.84425,3.57894 0.780034,3.64316 -0.06422,0.0642 -0.786038,-0.8688 -1.604049,-2.07337 z"
         id="path1020" /><path
         style="fill:#9d0210;fill-opacity:1;stroke-width:0.352778"
         d="m 163.97991,188.61873 c -2.59569,-0.33268 -6.65016,-1.36138 -6.88903,-1.74789 -0.0872,-0.14108 0.75248,-0.36272 1.86594,-0.49252 7.18557,-0.83765 14.53425,-5.82753 17.92876,-12.17395 0.49528,-0.92599 1.57179,-2.01659 2.91032,-2.94843 4.48314,-3.121 11.87956,-10.47515 15.85697,-15.76636 9.79819,-13.03468 17.91929,-34.02218 19.31576,-49.91805 0.13636,-1.55222 0.36812,-3.04511 0.51501,-3.31753 0.32192,-0.59703 1.84252,5.57771 2.68479,10.90225 0.84162,5.32039 0.84836,17.46838 0.0128,23.10694 -2.32848,15.71367 -7.53821,27.08105 -16.78936,36.63355 -8.5132,8.79054 -18.37248,13.94223 -29.74881,15.54441 -3.86709,0.54462 -4.65662,0.56292 -7.66318,0.17758 z"
         id="path1018" /><path
         style="fill:#da590c;fill-opacity:1;stroke-width:0.352778"
         d="m -2.8839675,209.34989 c -2.2412359,-1.76197 -6.374306,-5.95856 -8.4247415,-8.55424 -3.515515,-4.45034 -6.635171,-11.167 -7.852929,-16.90746 -0.898542,-4.23568 -1.239654,-12.26119 -0.665285,-15.65236 0.477731,-2.8206 2.745524,-7.75307 4.556735,-9.91095 l 1.025383,-1.22164 0.567722,1.9272 c 0.953033,3.23518 3.022893,8.3417 3.9126511,9.65283 l 0.8419041,1.24062 -0.7380499,2.39604 c -1.0868023,3.52827 -1.0868413,11.91118 -7.41e-5,16.91161 1.4209006,6.53784 4.6590794,14.77318 7.8445249,19.95019 0.5732674,0.93168 1.00408311,1.69386 0.95737181,1.69374 -0.0467148,-1.2e-4 -0.95805971,-0.68664 -2.02521241,-1.52558 z"
         id="path1016" /><path
         style="fill:#9d0210;fill-opacity:1;stroke-width:0.352778"
         d="m 66.330668,212.41691 c -11.792718,-1.81937 -24.702677,-8.4784 -32.941505,-16.99144 -4.225039,-4.36566 -10.087482,-12.06645 -9.185927,-12.06645 0.156722,0 2.074323,0.79101 4.261337,1.75779 2.187017,0.96678 5.240009,2.14585 6.784428,2.62014 1.544418,0.4743 3.800883,1.4894 5.014365,2.25578 7.411924,4.68106 18.496067,8.49566 28.466551,9.79676 5.830336,0.76084 16.375548,0.50776 22.224998,-0.53336 2.231319,-0.39716 5.43965,-0.82604 7.129621,-0.95309 l 3.072684,-0.231 -0.37293,1.37474 c -1.579773,5.82372 -6.701351,10.29686 -13.896472,12.13706 -5.769737,1.47565 -14.182325,1.81657 -20.55715,0.83307 z"
         id="path1014" /><path
         id="path1010"
         style="fill:#9d0210;fill-opacity:1;stroke-width:0.352778"
         d="m 144.54122,221.09296 c -5.16434,-0.72028 -10.61118,-2.40712 -15.30992,-4.74134 -5.97161,-2.96656 -9.85983,-5.92444 -15.69861,-11.94239 -2.61937,-2.69975 -7.07181,-7.2308 -9.89431,-10.069 -5.354641,-5.38445 -6.953109,-7.47748 -8.996172,-11.77959 -2.437465,-5.13261 -2.718114,-9.15526 -1.150295,-16.48773 0.496365,-2.32143 0.66972,-4.16591 0.564088,-6.00179 -0.38087,-6.61933 -6.323242,-12.8155 -14.213585,-14.82064 -0.970139,-0.24654 -1.885767,-0.55466 -2.034731,-0.68472 -0.374907,-0.32733 2.479128,-2.32045 4.928454,-3.44179 1.61291,-0.73841 2.829447,-0.98158 5.918256,-1.18297 3.509063,-0.22879 4.118747,-0.37462 6.255233,-1.49624 4.902051,-2.57348 8.262902,-2.58599 13.040602,-0.0485 9.63409,5.11674 11.73022,5.50008 15.27579,2.79369 l 1.59556,-1.21792 v 0.90146 c 0,1.37611 -1.66356,4.59079 -2.92833,5.65873 -0.62074,0.52413 -1.89419,1.30872 -2.8299,1.74353 -0.93975,0.43669 -1.52965,0.89665 -1.31784,1.02755 0.59112,0.36534 4.23213,-0.48874 6.15476,-1.44373 0.94849,-0.47112 1.80099,-0.78011 1.89445,-0.68665 0.35763,0.35762 -0.31383,1.97246 -1.42702,3.43195 -0.82905,1.08695 -2.04172,1.98502 -4.25108,3.14824 -3.77639,1.98825 -5.57431,3.68572 -7.02902,6.63634 -0.91416,1.85421 -1.11128,2.67643 -1.11128,4.63539 0,1.99298 0.1544,2.61468 0.94668,3.81189 2.17366,3.28463 6.86461,4.40302 10.66386,2.54242 2.62825,-1.28714 4.86886,-3.56183 6.01403,-6.10551 0.90113,-2.00163 1.00981,-2.69086 1.20906,-7.66738 0.19478,-4.86495 0.31873,-5.68206 1.12382,-7.40833 1.66072,-3.56093 4.36947,-5.6023 9.87688,-7.44346 4.14669,-1.38626 4.93061,-1.79323 6.07585,-3.15427 0.80227,-0.95345 0.92397,-1.00387 0.92397,-0.38282 0,1.32615 -0.78772,4.44473 -1.45675,5.76727 -0.89688,1.77296 -2.56657,3.62377 -4.41881,4.89815 -1.07294,0.7382 -1.53278,1.30276 -1.53278,1.88183 0,1.33619 0.81612,1.28537 3.25978,-0.203 1.80334,-1.09837 3.08497,-1.55464 5.95714,-2.12081 4.38414,-0.8642 7.35665,-2.19864 9.80902,-4.40353 4.47027,-4.01916 5.63259,-7.49729 6.88151,-20.59214 0.80895,-8.48181 0.91193,-12.18464 0.51879,-18.65261 -0.19311,-3.17693 -0.28337,-5.84396 -0.20059,-5.926739 0.26637,-0.266369 3.35636,5.380899 4.40715,8.054509 1.98932,5.06156 2.87524,10.20442 2.87701,16.70123 0.005,16.91673 -6.68786,27.24116 -20.3617,31.41194 -3.92847,1.19825 -6.10914,2.30611 -7.28132,3.69917 -2.45692,2.91989 0.0265,3.8946 3.58726,1.40795 1.26841,-0.8858 3.57476,-1.93758 6.24456,-2.84778 6.22562,-2.12244 9.65043,-4.33876 13.05278,-8.44691 3.83601,-4.63178 7.11861,-12.15296 8.31464,-19.05076 0.69625,-4.01543 0.61574,-14.53458 -0.14715,-19.22639 -2.21171,-13.602117 -7.10469,-26.321149 -14.45972,-37.587262 -4.92055,-7.537086 -13.67535,-23.266899 -12.94974,-23.266899 0.84191,0 12.3579,5.810853 15.00001,7.568854 10.04137,6.681297 18.59384,21.738631 21.24881,37.41031 0.91728,5.414477 0.82565,16.505307 -0.19028,23.030117 -1.62202,10.41749 -5.09872,22.25801 -8.45716,28.80239 -2.90986,5.67024 -6.31545,9.36952 -13.65108,14.82831 -4.8596,3.61627 -6.52638,5.04031 -6.52638,5.57591 0,0.18087 -0.2616,0.88014 -0.58134,1.55393 l -0.58133,1.22507 -2.68186,-0.13925 c -1.47502,-0.0766 -4.29757,-0.35389 -6.27233,-0.61623 -2.88681,-0.38352 -3.96902,-0.39228 -5.52209,-0.0447 -3.26012,0.72958 -5.72061,3.20843 -7.58341,7.63997 -0.81261,1.93318 -1.38171,2.72203 -2.66384,3.69245 -1.55965,1.18046 -2.03872,2.17615 -1.27436,2.64855 0.19586,0.12105 1.41932,-0.20527 2.71881,-0.72514 2.06301,-0.82534 2.72261,-0.92499 5.20014,-0.78561 3.55416,0.19994 9.08073,2.27655 13.14551,4.93943 5.25552,3.44294 9.17986,4.7533 15.26832,5.09818 13.07167,0.74045 25.201,-4.14731 38.00671,-15.31556 1.4095,-1.22927 2.56273,-2.06007 2.56273,-1.84621 0,0.90312 -2.64924,6.01269 -4.73884,9.13974 -7.53595,11.27747 -19.96413,19.22957 -34.76864,22.24654 -11.81654,2.40806 -23.51767,0.069 -30.07826,-6.01262 -2.14236,-1.98596 -2.18464,-2.05924 -1.49898,-2.59869 1.2708,-0.99983 2.13839,-1.01944 3.62353,-0.0819 3.26452,2.0608 8.95477,3.90418 13.48619,4.36891 4.90056,0.50258 11.71941,-0.57934 14.05265,-2.22969 1.59898,-1.13101 0.41457,-1.31971 -5.21938,-0.83156 -6.11391,0.52973 -9.76797,0.19679 -14.6541,-1.33522 -3.32993,-1.04407 -5.05045,-1.87063 -7.2925,-3.50337 l -1.64806,-1.20018 -1.6842,1.06809 c -1.58777,1.00693 -1.88729,1.06798 -5.23111,1.06612 -6.00987,-0.003 -7.13308,-0.61908 -9.32749,-5.11331 -2.00013,-4.09637 -4.56009,-6.23946 -8.41872,-7.04781 -1.54427,-0.32352 -1.57979,0.6687 -0.054,1.50797 3.55341,1.95456 5.45052,4.21519 6.49831,7.74348 0.94362,3.17752 3.71079,4.93522 8.76337,5.5665 1.85497,0.23176 2.04264,0.34906 3.36887,2.10563 2.75663,3.65114 9.65506,8.00823 15.87429,10.02629 8.73286,2.83372 19.46197,2.57434 28.90863,-0.69887 l 3.02584,-1.04843 -1.22218,1.28796 c -4.68202,4.93405 -13.51526,9.34785 -21.75246,10.86928 -3.71113,0.68546 -10.55876,0.95978 -13.54868,0.54277 z m -42.61664,-73.58131 c 0.40527,-0.48832 0.35552,-0.66451 -0.34866,-1.23472 -0.96246,-0.77935 -1.44533,-0.827 -2.269986,-0.224 -0.553096,0.40444 -0.55704,0.50714 -0.04742,1.23472 0.649022,0.92661 1.989486,1.03923 2.666066,0.224 z" /><path
         style="fill:#da590c;fill-opacity:1;stroke-width:0.352778"
         d="M 32.04103,228.38225 C 18.609589,223.19389 7.7027871,214.39342 1.0462765,203.37323 c -4.5787024,-7.58027 -7.2086571,-16.30506 -7.2558869,-24.07115 -0.028681,-4.71425 0.4177453,-6.55172 2.3207943,-9.55252 l 1.0890954,-1.71732 0.7800199,2.63631 c 0.429013,1.44997 1.2009119,3.64874 1.7153289,4.88615 1.3535059,3.2558 5.1688644,8.80112 7.611233,11.06232 1.6330329,1.5119 2.1657061,2.2606 2.3593105,3.31615 0.3801854,2.0728 2.8029814,8.92434 4.4463614,12.57406 3.799113,8.4373 8.319096,14.64615 16.300703,22.39138 2.649333,2.57086 4.774088,4.66702 4.721687,4.65813 -0.05241,-0.009 -1.444657,-0.53742 -3.093893,-1.17449 z"
         id="path1008" /><path
         style="fill:#9d0210;fill-opacity:1;stroke-width:0.352778"
         d="m 76.431746,238.03781 c -7.321482,-0.66204 -17.559886,-2.9072 -23.212409,-5.09021 -8.547068,-3.30088 -14.97417,-7.45488 -21.822641,-14.10452 -8.953277,-8.69335 -14.430932,-17.94646 -17.429271,-29.44234 -0.965239,-3.70081 -1.086199,-4.7734 -1.238335,-10.9806 -0.09273,-3.78355 -0.0672,-6.78204 0.05672,-6.66333 0.12393,0.11871 0.847883,1.50321 1.608786,3.07666 3.042112,6.2907 14.449854,21.39757 20.043431,26.54281 8.106946,7.45716 18.94871,14.0914 27.765497,16.99014 2.134305,0.70171 5.927689,1.61793 8.429737,2.03605 2.502052,0.41812 4.883302,0.88833 5.291667,1.04492 0.408368,0.15658 3.232862,1.79484 6.276653,3.64056 5.821521,3.5301 10.504917,5.58152 15.985274,7.00184 2.778945,0.72021 4.011135,0.82358 9.877785,0.82868 3.68652,0.003 7.15264,-0.1196 7.70247,-0.27289 1.87614,-0.52308 0.62681,0.37303 -2.10641,1.51087 -3.08882,1.28588 -8.80813,2.64778 -14.214139,3.38471 -4.553038,0.62066 -18.350596,0.9184 -23.014819,0.49665 z"
         id="path302" /></g></g></svg>
